HIERARCHY
ROOT Hips
{
	OFFSET 0.00 0.00 0.00
	CHANNELS 6 Xposition Yposition Zposition Xrotation Yrotation Zrotation
	JOINT LeftUpLeg
	{
		OFFSET 3.10215 0.00000 0.00000
		CHANNELS 3 Xrotation Yrotation Zrotation
		JOINT LeftLeg
		{
			OFFSET 0.00000 -16.83331 0.00000
			CHANNELS 3 Xrotation Yrotation Zrotation
			JOINT LeftFoot
			{
				OFFSET 0.00000 -15.53879 0.00000
				CHANNELS 3 Xrotation Yrotation Zrotation
				JOINT LeftToeBase
				{
					OFFSET 0.00000 -1.57366 5.87297
					CHANNELS 3 Xrotation Yrotation Zrotation
					End Site
					{
						OFFSET 0.00000 0.00000 2.95275
					}
				}
			}
		}
	}
	JOINT RightUpLeg
	{
		OFFSET -3.10215 0.00000 0.00000
		CHANNELS 3 Xrotation Yrotation Zrotation
		JOINT RightLeg
		{
			OFFSET 0.00000 -16.83331 0.00000
			CHANNELS 3 Xrotation Yrotation Zrotation
			JOINT RightFoot
			{
				OFFSET 0.00000 -15.53879 0.00000
				CHANNELS 3 Xrotation Yrotation Zrotation
				JOINT RightToeBase
				{
					OFFSET 0.00000 -1.57366 5.87297
					CHANNELS 3 Xrotation Yrotation Zrotation
					End Site
					{
						OFFSET 0.00000 0.00000 2.95275
					}
				}
			}
		}
	}
	JOINT Spine
	{
		OFFSET 0.00000 0.03937 0.00000
		CHANNELS 3 Xrotation Yrotation Zrotation
		JOINT Spine1
		{
			OFFSET 0.00000 8.31046 0.00000
			CHANNELS 3 Xrotation Yrotation Zrotation
			JOINT Neck
			{
				OFFSET 0.00000 6.25463 0.00000
				CHANNELS 3 Xrotation Yrotation Zrotation
				JOINT Head
				{
					OFFSET 0.00000 8.60817 0.00000
					CHANNELS 3 Xrotation Yrotation Zrotation
					End Site
					{
						OFFSET 0.00000 4.52755 0.00000
					}
				}
			}
			JOINT LeftShoulder
			{
				OFFSET 0.00000 6.25463 0.00000
				CHANNELS 3 Xrotation Yrotation Zrotation
				JOINT LeftArm
				{
					OFFSET 7.44857 -0.00003 0.00000
					CHANNELS 3 Xrotation Yrotation Zrotation
					JOINT LeftForeArm
					{
						OFFSET 10.73545 -0.00004 0.00000
						CHANNELS 3 Xrotation Yrotation Zrotation
						JOINT LeftHand
						{
							OFFSET 10.15840 -0.00004 0.00000
							CHANNELS 3 Xrotation Yrotation Zrotation
							JOINT LeftHandThumb
							{
								OFFSET 0.00000 0.00000 0.00000
								CHANNELS 3 Xrotation Yrotation Zrotation
								End Site
								{
									OFFSET 0.00000 0.00000 3.93700
								}
							}
							JOINT L_Wrist_End
							{
								OFFSET 3.93700 -0.00001 0.00000
								CHANNELS 3 Xrotation Yrotation Zrotation
							}
						}
					}
				}
			}
			JOINT RightShoulder
			{
				OFFSET 0.00000 6.25463 0.00000
				CHANNELS 3 Xrotation Yrotation Zrotation
				JOINT RightArm
				{
					OFFSET -7.44857 -0.00003 0.00000
					CHANNELS 3 Xrotation Yrotation Zrotation
					JOINT RightForeArm
					{
						OFFSET -10.73545 -0.00004 0.00000
						CHANNELS 3 Xrotation Yrotation Zrotation
						JOINT RightHand
						{
							OFFSET -10.15840 -0.00004 0.00000
							CHANNELS 3 Xrotation Yrotation Zrotation
							JOINT RightHandThumb
							{
								OFFSET 0.00000 0.00000 0.00000
								CHANNELS 3 Xrotation Yrotation Zrotation
								End Site
								{
									OFFSET 0.00000 0.00000 3.93700
								}
							}
							JOINT R_Wrist_End
							{
								OFFSET -5.39369 -0.00002 0.00000
								CHANNELS 3 Xrotation Yrotation Zrotation
							}
						}
					}
				}
			}
		}
	}
}
MOTION
Frames: 6
Frame Time: 0.008333
 81.0158 33.5017 0.5748 177.9797 79.8872 -177.7017 11.5224 -9.5805 -6.5992 3.1887 -0.0000 -0.0000 -13.7715 5.5127 -15.7361 -3.7510 -0.0000 0.0000 -29.9051 1.6290 -7.7023 39.3168 -0.0000 0.0000 -12.9467 -5.2035 -1.5166 2.5001 -0.0000 -0.0000 -4.9211 -1.1242 -2.7480 3.2429 -2.0710 0.5438 19.1758 12.6046 2.2556 -1.7849 -6.1532 -0.4034 16.1711 -9.1786 26.2916 -25.6879 -6.5504 -82.9643 -0.0006 -69.1516 -0.0004 -14.7003 -2.0247 -1.5734 0.0000 0.0000 0.0000 0.0000 0.0000 0.0000 22.2144 -5.3519 -18.7897 8.1457 8.0844 93.4724 -0.0001 15.0484 0.0000 -28.7071 13.3796 24.7513 -0.0000 0.0000 0.0000 -0.0000 0.0000 0.0000
 81.5165 33.4863 0.5472 179.0767 79.0619 -178.7220 12.7819 -10.2853 -6.2857 2.6225 -0.0000 0.0000 -13.3128 5.2926 -15.9999 -3.9023 0.0000 -0.0000 -29.3485 0.8009 -7.9626 34.6763 -0.0000 0.0000 -12.4557 -5.8537 -1.7152 2.1892 0.0000 0.0000 -5.3113 -1.2735 -2.8397 3.9962 -2.2324 0.4803 19.4237 12.5974 2.3746 -2.4255 -6.5036 -0.4982 16.3231 -9.5221 26.2461 -27.5622 -7.0180 -81.7335 -0.0006 -69.4548 -0.0004 -14.7194 -2.1167 -0.6030 -0.0000 0.0000 -0.0000 -0.0000 0.0000 -0.0000 22.3848 -5.3283 -18.6790 8.5364 6.7035 93.9629 -0.0001 14.3247 0.0000 -28.1830 14.3089 23.8435 0.0000 -0.0000 -0.0000 0.0000 -0.0000 -0.0000
 82.0145 33.4574 0.5188 179.9049 78.5114 -179.5839 13.8028 -10.7229 -5.9471 2.6106 0.0000 -0.0000 -13.2952 5.1009 -16.1904 -4.3440 -0.0000 0.0000 -28.7672 -0.1190 -7.9501 29.9004 -0.0000 -0.0000 -12.0890 -6.1206 -2.2552 2.1265 -0.0000 -0.0000 -5.3010 -1.4717 -2.8450 4.1553 -2.4193 0.4482 19.4251 12.7598 2.4112 -2.4087 -6.7504 -0.4298 16.2700 -9.7592 26.2947 -28.7031 -7.0037 -80.9217 -0.0006 -69.9716 -0.0004 -14.5672 -2.1333 -0.4108 -0.0000 -0.0000 -0.0000 -0.0000 -0.0000 -0.0000 22.5527 -5.5436 -18.6524 8.7224 6.2825 94.1728 -0.0001 13.5893 0.0000 -28.6267 14.5080 23.6243 0.0000 -0.0000 -0.0000 0.0000 -0.0000 -0.0000
 82.4774 33.4133 0.4883 178.7705 77.8031 -178.3909 14.2015 -10.8430 -5.7484 3.0098 0.0000 -0.0000 -13.5565 4.5967 -16.6456 -3.7472 -0.0000 -0.0000 -28.6091 -1.3579 -8.1532 25.1670 -0.0000 0.0000 -11.8956 -5.6746 -2.2851 2.5651 0.0000 0.0000 -5.3823 -1.7315 -2.9281 3.9685 -2.6815 0.3647 19.4409 12.7925 2.4239 -2.4027 -6.8652 -0.2997 16.1848 -10.0316 26.4195 -29.6591 -6.9518 -80.2425 -0.0006 -70.4430 -0.0004 -14.4464 -2.1248 -0.2600 0.0000 0.0000 0.0000 0.0000 0.0000 0.0000 22.6284 -5.8170 -18.7020 8.9643 6.0237 94.4195 -0.0000 12.9243 0.0000 -28.8010 14.8421 23.2801 -0.0000 0.0000 0.0000 -0.0000 0.0000 0.0000
 83.0034 33.3777 0.4735 179.4237 77.2468 -179.1769 15.1257 -10.6470 -5.2884 3.4150 0.0000 0.0000 -13.6428 3.9631 -17.0841 -4.4213 0.0000 -0.0000 -27.7283 -2.6188 -7.9840 20.2340 -0.0000 0.0000 -11.7380 -4.8457 -1.6166 2.3362 0.0000 0.0000 -5.5878 -2.0517 -2.9791 4.3522 -2.9902 0.4078 19.4179 13.0583 2.4442 -2.3851 -6.9369 -0.2338 16.1123 -10.0562 26.5865 -30.5711 -6.7643 -79.6564 -0.0006 -70.8487 -0.0004 -14.3072 -2.0758 -0.1578 0.0000 0.0000 -0.0000 0.0000 0.0000 -0.0000 22.5750 -5.6867 -18.7788 9.3394 5.6813 94.6181 -0.0000 12.4246 0.0000 -28.8074 15.3074 22.8074 0.0000 -0.0000 -0.0000 0.0000 -0.0000 -0.0000
 83.5319 33.3345 0.4701 -179.9689 76.7295 -179.8819 15.9512 -10.5141 -4.8351 3.9715 0.0000 -0.0000 -13.7884 3.3650 -17.5586 -5.1271 -0.0000 0.0000 -26.7870 -3.9304 -7.7255 15.4500 0.0000 -0.0000 -11.5316 -3.9522 -0.3110 2.0871 0.0000 0.0000 -5.5647 -2.2568 -3.0917 4.3609 -3.1572 0.4999 19.3952 13.2368 2.4816 -2.1908 -7.1686 -0.0998 16.0540 -10.2933 26.8402 -31.1942 -6.5110 -79.2226 -0.0006 -71.2651 -0.0004 -14.4146 -1.9547 -0.0620 -0.0000 0.0000 -0.0000 -0.0000 0.0000 -0.0000 22.6795 -5.9645 -18.8319 9.5559 5.4275 94.8349 -0.0000 11.9088 0.0000 -28.6270 15.3849 22.6268 -0.0000 0.0000 0.0000 -0.0000 0.0000 0.0000
